<svg xmlns="http://www.w3.org/2000/svg" version="1.1" xmlns:xlink="http://www.w3.org/1999/xlink" xmlns:svgjs="http://svgjs.dev/svgjs" width="1500" height="1500" viewBox="0 0 1500 1500"><rect width="1500" height="15" fill="#000000"></rect><g transform="matrix(0.6666666666666666,0,0,0.6666666666666666,249.39393939393938,459.45022245311924)"><svg viewBox="0 0 396 230" data-background-color="#000000" preserveAspectRatio="xMidYMid meet" height="871" width="1500" xmlns="http://www.w3.org/2000/svg" xmlns:xlink="http://www.w3.org/1999/xlink"><g id="tight-bounds" transform="matrix(1,0,0,1,0.2400000000000091,0.08573278263364159)"><svg viewBox="0 0 395.52 229.82853443473272" height="229.82853443473272" width="395.52"><g><svg viewBox="0 0 425.4151654426778 247.2" height="229.82853443473272" width="395.52"><g><svg viewBox="0 0 226.85857740585772 247.2" height="247.2" width="226.85857740585772"><g id="textblocktransform"><svg viewBox="0 0 226.85857740585772 247.2" height="247.2" width="226.85857740585772" id="textblock"><g><svg viewBox="0 0 226.85857740585772 247.2" height="247.2" width="226.85857740585772"><g transform="matrix(1,0,0,1,0,0)"><svg width="226.85857740585772" viewBox="1.75 -35.45 32.9 35.85" height="247.2" data-palette-color="#48937e"><path d="M17.35 0.4L8.6 0 1.75 0.25 1.85-1.5 5.85-2.5 6.35-16.6 5.85-32.5 2-33.5 2.25-35.25 8.35-35 17.35-35.45 23.35-34.1 31.1-29.8 34.1-23.65 34.65-17.5 32-6.3 23.6-0.75 17.35 0.4ZM11.1-2.25L17.4-2.25 23.35-3.95 27.4-7.85 28.95-17.5 28-26.1 23.25-31.15 17.45-32.75 11.1-32.75 10.65-26.55 11.1-2.25Z" opacity="1" transform="matrix(1,0,0,1,0,0)" fill="#48937e" class="wordmark-text-0" data-fill-palette-color="primary" id="text-0"></path></svg></g></svg></g></svg></g></svg></g><g transform="matrix(1,0,0,1,285.2165646058577,56.666952580420684)"><svg viewBox="0 0 140.19860083682008 133.86609483915862" height="133.86609483915862" width="140.19860083682008"><g><svg xmlns="http://www.w3.org/2000/svg" xmlns:xlink="http://www.w3.org/1999/xlink" xml:space="preserve" version="1.1" style="shape-rendering:geometricPrecision;text-rendering:geometricPrecision;image-rendering:optimizeQuality;" viewBox="9.013457958102146 10.865239828489056 81.97115127945621 78.26866920036227" x="0" y="0" fill-rule="evenodd" clip-rule="evenodd" height="133.86609483915862" width="140.19860083682008" class="icon-icon-0" data-fill-palette-color="accent" id="icon-0"><g fill="#f231aa" data-fill-palette-color="accent"><path class="" d="M17.87 39.75c-8.02-19.9 11.71-19.68 26.35-24.23 2.75-0.86 23.14-12.55 14.52 4.76-0.32 0.64-0.67 1.24-1.05 1.78 13.31-3.14 21.79-8.92 14.85 6.31 11.22 10.02 25.41 19.03 14.57 37.9-15.25 26.57-47.88 30.35-70.19 9.41-11.49-10.8-10.67-28.52 3.86-33.44 0.18-0.04 0.35-0.07 0.52-0.07 1.1-0.04 2.11 0.69 2.4 1.79 0.32 1.28-0.45 2.59-1.72 2.91-1.84 0.62-3.16 1.2-4.49 2.71-14.71 16.69 13.31 32.19 28.16 34.28 24.05 3.37 53.07-23.59 33.24-44.33-15.31-16.02-12.56-3.56-9.14-15.64-2.74 1.02-4.39 1.57-8.78 2.54-21.29 4.72-10.08-2.14-6.49-9.73l-9.09 3.45c-13.09 4.12-29.12 2.97-23.26 17.43 0.57 1.12 0.18 2.48-0.88 3.13l-0.16 0.09c-1.18 0.6-2.62 0.13-3.22-1.05z m42.45-5.04c3.31 1.03 1.69 0.68 4.84 1.11 1.32 0.11 2.3 1.27 2.18 2.58-0.11 1.32-1.26 2.3-2.58 2.19-4.06-0.56-1.9-0.11-6.44-1.53-1.2-0.56-1.73-1.98-1.18-3.18 0.56-1.2 1.98-1.72 3.18-1.17z m-32.93 7.13c1.93-3.57 4.4-4.68 8.23-5.83 1.31-0.18 2.52 0.74 2.7 2.05 0.18 1.31-0.74 2.51-2.05 2.69-1.63 0.51-3.47 1.3-4.43 2.83-0.48 1.23-1.86 1.84-3.09 1.36-1.23-0.48-1.84-1.87-1.36-3.1z m5.14 18.43c5.14-0.96 17.25-3.39 21.5-2.59l-0.23 0.03c1.31-0.11 2.47 0.87 2.58 2.19 0.11 1.31-0.87 2.47-2.19 2.58-6.05-0.57-13.38 1.08-19.53 2.24 10.67 16.36 41.04 1.76 34.83-15.64-0.07-0.17-0.12-0.34-0.16-0.51-0.2-1.08 0.36-2.19 1.4-2.64 1.21-0.53 2.62 0.03 3.15 1.24 9.72 27.31-43.28 46.4-47.38 7.09-0.05-0.19-0.07-0.38-0.07-0.58l0-0.04 0-0.02 0-0.03 0.01-0.03 0-0.03 0-0.03 0-0.03 0.01-0.03 0-0.03 0-0.03 0.01-0.02 0-0.04 0.01-0.02 0-0.04 0.01-0.02 0.01-0.04 0-0.01 0.01-0.05 0-0.01 0.01-0.05 0 0 0.02-0.05 0-0.01 0.02-0.05 0 0 0.03-0.11 0.01 0 0.02-0.05 0 0 0.02-0.06 0.02-0.05 0 0 0.03-0.05 0 0 0.02-0.05 0-0.01 0.03-0.04 0-0.01 0.03-0.04 0-0.01 0.03-0.04 0-0.01 0.03-0.04 0 0 0.03-0.05 0 0 0.04-0.05 0.03-0.05 0.04-0.04 0 0 0.03-0.05 0 0 0.01 0 0.07-0.08 0 0 0.04-0.04 0-0.01 0.04-0.03 0-0.01 0.04-0.03 0.01-0.01 0.03-0.03 0.01-0.01 0.04-0.03 0.01-0.01 0.03-0.03 0.01-0.01 0.04-0.02 0.01-0.01 0.03-0.03 0.02-0.01c0.16-0.11 0.33-0.2 0.51-0.28 13.48-6.55 20.64-4.53 35.23-6.32 1.13-0.14 0.9-0.13 1.76-0.11 1.32 0 2.39 1.07 2.39 2.39 0 1.32-1.07 2.39-2.39 2.39l-0.6-0.01 0.12-0.06c-9.73 1.43-14.64 0.8-19.79 1.31-1.58 0.16-3.18 0.43-4.94 0.89-2.37 0.62-5.03 1.6-8.35 3.17 0.25 1.89 0.64 3.6 1.16 5.14z" fill="#f231aa" data-fill-palette-color="accent"></path></g></svg></g></svg></g></svg></g><defs></defs></svg><rect width="395.52" height="229.82853443473272" fill="none" stroke="none" visibility="hidden"></rect></g></svg></g></svg>